<?xml version="1.0" encoding="UTF-8" standalone="no"?>
<!-- Created with Inkscape (http://www.inkscape.org/) -->

<svg
   xmlns:dc="http://purl.org/dc/elements/1.1/"
   xmlns:cc="http://creativecommons.org/ns#"
   xmlns:rdf="http://www.w3.org/1999/02/22-rdf-syntax-ns#"
   xmlns:svg="http://www.w3.org/2000/svg"
   xmlns="http://www.w3.org/2000/svg"
   xmlns:sodipodi="http://sodipodi.sourceforge.net/DTD/sodipodi-0.dtd"
   xmlns:inkscape="http://www.inkscape.org/namespaces/inkscape"
   version="1.1"
   id="svg2"
   width="986"
   height="486"
   viewBox="0 0 986 486"
   sodipodi:docname="logos.svg"
   inkscape:export-filename="/home/professor/eventos/videos/1/Alekfull-SOLO/assets/aplicativos.png"
   inkscape:export-xdpi="600"
   inkscape:export-ydpi="600"
   inkscape:version="0.92.3 (2405546, 2018-03-11)">
  <metadata
     id="metadata8">
    <rdf:RDF>
      <cc:Work
         rdf:about="">
        <dc:format>image/svg+xml</dc:format>
        <dc:type
           rdf:resource="http://purl.org/dc/dcmitype/StillImage" />
        <dc:title />
      </cc:Work>
    </rdf:RDF>
  </metadata>
  <defs
     id="defs6">
    <filter
       inkscape:collect="always"
       style="color-interpolation-filters:sRGB"
       id="filter1011"
       x="-0.0089789811"
       width="1.017958"
       y="-0.018084669"
       height="1.0361693">
      <feGaussianBlur
         inkscape:collect="always"
         stdDeviation="2.9307742"
         id="feGaussianBlur1013" />
    </filter>
    <filter
       inkscape:collect="always"
       style="color-interpolation-filters:sRGB"
       id="filter1186"
       x="-0.00600307"
       width="1.0120061"
       y="-0.0288046"
       height="1.0576092">
      <feGaussianBlur
         inkscape:collect="always"
         stdDeviation="3.300425"
         id="feGaussianBlur1188" />
    </filter>
  </defs>
  <sodipodi:namedview
     pagecolor="#ffffff"
     bordercolor="#666666"
     borderopacity="1"
     objecttolerance="10"
     gridtolerance="10"
     guidetolerance="10"
     inkscape:pageopacity="0"
     inkscape:pageshadow="2"
     inkscape:window-width="1920"
     inkscape:window-height="1024"
     id="namedview4"
     showgrid="false"
     inkscape:zoom="1.0412972"
     inkscape:cx="436.72004"
     inkscape:cy="356.26152"
     inkscape:window-x="0"
     inkscape:window-y="29"
     inkscape:window-maximized="1"
     inkscape:current-layer="svg2" />
  <text
     xml:space="preserve"
     style="font-style:normal;font-weight:normal;font-size:200.66572571px;line-height:1.25;font-family:sans-serif;letter-spacing:0px;word-spacing:0px;fill:#666666;fill-opacity:1;stroke:none;stroke-width:5.01664305;filter:url(#filter1186)"
     x="-29.567202"
     y="318.41315"
     id="text1184"
     transform="matrix(0.68943129,-0.14651023,0.29491932,1.3877979,0,0)"><tspan
       sodipodi:role="line"
       id="tspan1182"
       x="-29.567202"
       y="318.41315"
       style="font-style:normal;font-variant:normal;font-weight:normal;font-stretch:normal;font-family:'Open Sans';-inkscape-font-specification:'Open Sans';stroke-width:5.01664305;fill:#666666;">APLICATIVOS</tspan></text>
  <g
     aria-label="APLICATIVOS"
     transform="matrix(0.68943129,-0.14651023,0.29491932,1.3877979,0,0)"
     style="font-style:normal;font-weight:normal;font-size:200.66572571px;line-height:1.25;font-family:sans-serif;letter-spacing:0px;word-spacing:0px;fill:#fffffc;fill-opacity:1;stroke:#a9a198;stroke-width:1;stroke-opacity:1;stroke-miterlimit:4;stroke-dasharray:none"
     id="text1180">
    <path
       d="M 83.475341,314.86258 73.089322,280.76508 H 20.865283 l -10.386019,34.0975 H -22.246494 L 28.311862,171.02601 H 65.446779 L 116.2011,314.86258 Z M 65.838705,255.28994 q -14.403253,-46.34516 -16.264898,-52.42 -1.763664,-6.07484 -2.547514,-9.60217 -3.233383,12.54161 -18.518468,62.02217 z"
       style="font-style:normal;font-variant:normal;font-weight:normal;font-stretch:normal;font-family:'Open Sans';-inkscape-font-specification:'Open Sans';stroke-width:1;stroke:#a9a198;stroke-opacity:1;stroke-miterlimit:4;stroke-dasharray:none;fill:#fffffc;fill-opacity:1"
       id="path1190" />
    <path
       d="m 164.50588,239.02504 h 9.9941 q 14.01132,0 20.968,-5.48695 6.95667,-5.58493 6.95667,-16.16692 0,-10.67996 -5.87888,-15.77499 -5.7809,-5.09502 -18.22452,-5.09502 h -13.81537 z m 68.58692,-22.73166 q 0,23.12359 -14.50123,35.37125 -14.40326,12.24767 -41.05417,12.24767 h -13.03152 v 50.95028 h -30.3742 V 171.6139 h 45.75727 q 26.06303,0 39.58445,11.26785 13.6194,11.16987 13.6194,33.41163 z"
       style="font-style:normal;font-variant:normal;font-weight:normal;font-stretch:normal;font-family:'Open Sans';-inkscape-font-specification:'Open Sans';stroke-width:1;stroke:#a9a198;stroke-opacity:1;stroke-miterlimit:4;stroke-dasharray:none;fill:#fffffc;fill-opacity:1"
       id="path1192" />
    <path
       d="M 260.3316,314.86258 V 171.6139 h 30.3742 v 118.16546 h 58.10292 v 25.08322 z"
       style="font-style:normal;font-variant:normal;font-weight:normal;font-stretch:normal;font-family:'Open Sans';-inkscape-font-specification:'Open Sans';stroke-width:1;stroke:#a9a198;stroke-opacity:1;stroke-miterlimit:4;stroke-dasharray:none;fill:#fffffc;fill-opacity:1"
       id="path1194" />
    <path
       d="M 373.59798,314.86258 V 171.6139 h 30.37421 v 143.24868 z"
       style="font-style:normal;font-variant:normal;font-weight:normal;font-stretch:normal;font-family:'Open Sans';-inkscape-font-specification:'Open Sans';stroke-width:1;stroke:#a9a198;stroke-opacity:1;stroke-miterlimit:4;stroke-dasharray:none;fill:#fffffc;fill-opacity:1"
       id="path1196" />
    <path
       d="m 501.0717,194.83547 q -17.14673,0 -26.55294,12.93354 -9.4062,12.83555 -9.4062,35.86116 0,47.91286 35.95914,47.91286 15.08912,0 36.54703,-7.54456 v 25.47514 q -17.63664,7.3486 -39.38849,7.3486 -31.25604,0 -47.81488,-18.9104 -16.55884,-19.00837 -16.55884,-54.47761 0,-22.33974 8.13245,-39.09454 8.13245,-16.85279 23.31955,-25.76908 15.28508,-9.01429 35.76318,-9.01429 20.87002,0 41.936,10.09208 l -9.79813,24.69129 q -8.03447,-3.82127 -16.16692,-6.66273 -8.13245,-2.84146 -15.97095,-2.84146 z"
       style="font-style:normal;font-variant:normal;font-weight:normal;font-stretch:normal;font-family:'Open Sans';-inkscape-font-specification:'Open Sans';stroke-width:1;stroke:#a9a198;stroke-opacity:1;stroke-miterlimit:4;stroke-dasharray:none;fill:#fffffc;fill-opacity:1"
       id="path1198" />
    <path
       d="m 655.68622,314.86258 -10.38602,-34.0975 h -52.22404 l -10.38602,34.0975 h -32.72576 l 50.55836,-143.83657 h 37.13492 l 50.75432,143.83657 z m -17.63664,-59.57264 q -14.40325,-46.34516 -16.2649,-52.42 -1.76366,-6.07484 -2.54751,-9.60217 -3.23338,12.54161 -18.51847,62.02217 z"
       style="font-style:normal;font-variant:normal;font-weight:normal;font-stretch:normal;font-family:'Open Sans';-inkscape-font-specification:'Open Sans';stroke-width:1;stroke:#a9a198;stroke-opacity:1;stroke-miterlimit:4;stroke-dasharray:none;fill:#fffffc;fill-opacity:1"
       id="path1200" />
    <path
       d="m 761.60401,314.86258 h -30.3742 V 196.89308 H 692.33123 V 171.6139 h 108.17136 v 25.27918 h -38.89858 z"
       style="font-style:normal;font-variant:normal;font-weight:normal;font-stretch:normal;font-family:'Open Sans';-inkscape-font-specification:'Open Sans';stroke-width:1;stroke:#a9a198;stroke-opacity:1;stroke-miterlimit:4;stroke-dasharray:none;fill:#fffffc;fill-opacity:1"
       id="path1202" />
    <path
       d="M 822.74435,314.86258 V 171.6139 h 30.3742 v 143.24868 z"
       style="font-style:normal;font-variant:normal;font-weight:normal;font-stretch:normal;font-family:'Open Sans';-inkscape-font-specification:'Open Sans';stroke-width:1;stroke:#a9a198;stroke-opacity:1;stroke-miterlimit:4;stroke-dasharray:none;fill:#fffffc;fill-opacity:1"
       id="path1204" />
    <path
       d="m 971.08802,171.6139 h 30.66818 L 953.05946,314.86258 H 919.94177 L 871.34304,171.6139 h 30.66815 l 26.94487,85.24374 q 2.25357,7.54456 4.60512,17.63664 2.44953,9.99409 3.03742,13.91335 1.07779,-9.01429 7.3486,-31.54999 z"
       style="font-style:normal;font-variant:normal;font-weight:normal;font-stretch:normal;font-family:'Open Sans';-inkscape-font-specification:'Open Sans';stroke-width:1;stroke:#a9a198;stroke-opacity:1;stroke-miterlimit:4;stroke-dasharray:none;fill:#fffffc;fill-opacity:1"
       id="path1206" />
    <path
       d="m 1149.904,243.04228 q 0,35.56721 -17.6367,54.67357 -17.6366,19.10636 -50.5583,19.10636 -32.9217,0 -50.5584,-19.10636 -17.6366,-19.10636 -17.6366,-54.86953 0,-35.76318 17.6366,-54.57559 17.7346,-18.9104 50.7543,-18.9104 33.0197,0 50.4604,19.00838 17.5387,19.00837 17.5387,54.67357 z m -104.5461,0 q 0,24.00542 9.1123,36.1551 9.1122,12.14968 27.2388,12.14968 36.351,0 36.351,-48.30478 0,-48.40277 -36.1551,-48.40277 -18.1265,0 -27.3367,12.24766 -9.2103,12.14969 -9.2103,36.15511 z"
       style="font-style:normal;font-variant:normal;font-weight:normal;font-stretch:normal;font-family:'Open Sans';-inkscape-font-specification:'Open Sans';stroke-width:1;stroke:#a9a198;stroke-opacity:1;stroke-miterlimit:4;stroke-dasharray:none;fill:#fffffc;fill-opacity:1"
       id="path1208" />
    <path
       d="m 1264.346,275.08217 q 0,19.4003 -14.0113,30.57017 -13.9133,11.16987 -38.8006,11.16987 -22.9276,0 -40.5642,-8.62236 v -28.21862 q 14.5012,6.46677 24.4953,9.11226 10.0921,2.6455 18.4205,2.6455 9.9941,0 15.2851,-3.82127 5.3889,-3.82127 5.3889,-11.36583 0,-4.2132 -2.3515,-7.44658 -2.3516,-3.33137 -6.9567,-6.36879 -4.5071,-3.03742 -18.5185,-9.70015 -13.1295,-6.17282 -19.6942,-11.85574 -6.5648,-5.68291 -10.484,-13.22747 -3.9193,-7.54456 -3.9193,-17.63664 0,-19.00837 12.8356,-29.8843 12.9335,-10.87593 35.6652,-10.87593 11.1699,0 21.2619,2.6455 10.1901,2.6455 21.262,7.44658 l -9.7982,23.6135 q -11.4638,-4.70311 -19.0083,-6.56475 -7.4466,-1.86165 -14.6972,-1.86165 -8.6224,0 -13.2275,4.01724 -4.6051,4.01723 -4.6051,10.484 0,4.01723 1.8616,7.05465 1.8617,2.93944 5.8789,5.7809 4.1152,2.74348 19.3023,9.99409 20.0862,9.60217 27.5328,19.30232 7.4465,9.60217 7.4465,23.6135 z"
       style="font-style:normal;font-variant:normal;font-weight:normal;font-stretch:normal;font-family:'Open Sans';-inkscape-font-specification:'Open Sans';stroke-width:1;stroke:#a9a198;stroke-opacity:1;stroke-miterlimit:4;stroke-dasharray:none;fill:#fffffc;fill-opacity:1"
       id="path1210" />
  </g>
  <g
     id="g1058"
     transform="translate(-5.7620437,473.44793)">
    <g
       style="fill:#808080;filter:url(#filter1011)"
       id="g1009"
       transform="translate(-9.674209,3.524087)">
      <text
         transform="matrix(0.85036869,-0.16340351,0.21792141,1.1340856,0,0)"
         id="text1003"
         y="395.93066"
         x="56.227165"
         style="font-style:normal;font-variant:normal;font-weight:normal;font-stretch:normal;font-size:232.94703674px;line-height:1.25;font-family:Arial;-inkscape-font-specification:'Arial, Normal';font-variant-ligatures:normal;font-variant-caps:normal;font-variant-numeric:normal;font-feature-settings:normal;text-align:start;letter-spacing:0px;word-spacing:0px;writing-mode:lr-tb;text-anchor:start;fill:#808080;fill-opacity:1;stroke:none;stroke-width:5.82352877"
         xml:space="preserve"><tspan
           style="font-style:normal;font-variant:normal;font-weight:normal;font-stretch:normal;font-size:232.94703674px;font-family:'Open Sans';-inkscape-font-specification:'Open Sans';font-variant-ligatures:normal;font-variant-caps:normal;font-variant-numeric:normal;font-feature-settings:normal;text-align:start;writing-mode:lr-tb;text-anchor:start;fill:#808080;stroke-width:5.82352877"
           y="395.93066"
           x="56.227165"
           id="tspan1001"
           sodipodi:role="line">HEROES</tspan></text>
      <text
         xml:space="preserve"
         style="font-style:normal;font-variant:normal;font-weight:normal;font-stretch:normal;font-size:130.41542053px;line-height:1.25;font-family:Arial;-inkscape-font-specification:'Arial, Normal';font-variant-ligatures:normal;font-variant-caps:normal;font-variant-numeric:normal;font-feature-settings:normal;text-align:start;letter-spacing:0px;word-spacing:0px;writing-mode:lr-tb;text-anchor:start;fill:#808080;fill-opacity:1;stroke:none;stroke-width:3.2603035"
         x="90.010437"
         y="242.79315"
         id="text1007"
         transform="matrix(0.95286476,-0.18295076,0.19433445,1.0121545,0,0)"><tspan
           sodipodi:role="line"
           id="tspan1005"
           x="90.010437"
           y="242.79315"
           style="font-style:normal;font-variant:normal;font-weight:normal;font-stretch:normal;font-size:130.41542053px;font-family:'Open Sans';-inkscape-font-specification:'Open Sans';font-variant-ligatures:normal;font-variant-caps:normal;font-variant-numeric:normal;font-feature-settings:normal;text-align:start;writing-mode:lr-tb;text-anchor:start;fill:#808080;stroke-width:3.2603035">WORLD</tspan></text>
    </g>
    <g
       style="fill:#ffffff;fill-opacity:1;stroke:#a9a198;stroke-width:1;stroke-miterlimit:4;stroke-dasharray:none;stroke-opacity:1"
       transform="translate(-3.674209,-2.475913)"
       id="g999">
      <g
         id="text987"
         style="font-style:normal;font-variant:normal;font-weight:normal;font-stretch:normal;font-size:232.94703674px;line-height:1.25;font-family:Arial;-inkscape-font-specification:'Arial, Normal';font-variant-ligatures:normal;font-variant-caps:normal;font-variant-numeric:normal;font-feature-settings:normal;text-align:start;letter-spacing:0px;word-spacing:0px;writing-mode:lr-tb;text-anchor:start;fill:#ffffff;fill-opacity:1;stroke:#a9a198;stroke-width:1;stroke-miterlimit:4;stroke-dasharray:none;stroke-opacity:1"
         transform="matrix(0.85036869,-0.16340351,0.21792141,1.1340856,0,0)"
         aria-label="HEROES">
        <path
           id="path1015"
           style="font-style:normal;font-variant:normal;font-weight:normal;font-stretch:normal;font-size:232.94703674px;font-family:'Open Sans';-inkscape-font-specification:'Open Sans';font-variant-ligatures:normal;font-variant-caps:normal;font-variant-numeric:normal;font-feature-settings:normal;text-align:start;writing-mode:lr-tb;text-anchor:start;fill:#ffffff;fill-opacity:1;stroke:#a9a198;stroke-width:1;stroke-miterlimit:4;stroke-dasharray:none;stroke-opacity:1"
           d="m 213.42092,395.93066 h -35.1468 v -71.77225 h -65.85758 v 71.77225 H 77.156001 V 229.63742 h 35.260539 v 65.17512 h 65.85758 v -65.17512 h 35.1468 z"
           inkscape:connector-curvature="0" />
        <path
           id="path1017"
           style="font-style:normal;font-variant:normal;font-weight:normal;font-stretch:normal;font-size:232.94703674px;font-family:'Open Sans';-inkscape-font-specification:'Open Sans';font-variant-ligatures:normal;font-variant-caps:normal;font-variant-numeric:normal;font-feature-settings:normal;text-align:start;writing-mode:lr-tb;text-anchor:start;fill:#ffffff;fill-opacity:1;stroke:#a9a198;stroke-width:1;stroke-miterlimit:4;stroke-dasharray:none;stroke-opacity:1"
           d="M 351.27825,395.93066 H 255.50608 V 229.63742 h 95.77217 v 28.89089 h -60.51163 v 36.51172 h 56.30312 v 28.89089 h -56.30312 v 42.88136 h 60.51163 z"
           inkscape:connector-curvature="0" />
        <path
           id="path1019"
           style="font-style:normal;font-variant:normal;font-weight:normal;font-stretch:normal;font-size:232.94703674px;font-family:'Open Sans';-inkscape-font-specification:'Open Sans';font-variant-ligatures:normal;font-variant-caps:normal;font-variant-numeric:normal;font-feature-settings:normal;text-align:start;writing-mode:lr-tb;text-anchor:start;fill:#ffffff;fill-opacity:1;stroke:#a9a198;stroke-width:1;stroke-miterlimit:4;stroke-dasharray:none;stroke-opacity:1"
           d="m 421.34433,303.45706 h 11.37437 q 16.72032,0 24.68238,-5.57344 7.96205,-5.57344 7.96205,-17.51652 0,-11.82935 -8.18954,-16.83407 -8.0758,-5.00472 -25.13735,-5.00472 h -10.69191 z m 0,28.66341 v 63.81019 H 386.0838 V 229.63742 h 48.4548 q 33.89561,0 50.16096,12.39806 16.26534,12.28431 16.26534,37.42167 0,14.67293 -8.0758,26.16104 -8.0758,11.37437 -22.86248,17.85776 37.53542,56.07563 48.90978,72.45471 h -39.12782 l -39.69654,-63.81019 z"
           inkscape:connector-curvature="0" />
        <path
           id="path1021"
           style="font-style:normal;font-variant:normal;font-weight:normal;font-stretch:normal;font-size:232.94703674px;font-family:'Open Sans';-inkscape-font-specification:'Open Sans';font-variant-ligatures:normal;font-variant-caps:normal;font-variant-numeric:normal;font-feature-settings:normal;text-align:start;writing-mode:lr-tb;text-anchor:start;fill:#ffffff;fill-opacity:1;stroke:#a9a198;stroke-width:1;stroke-miterlimit:4;stroke-dasharray:none;stroke-opacity:1"
           d="m 690.80311,312.55655 q 0,41.28896 -20.47386,63.46897 -20.47386,22.18002 -58.69173,22.18002 -38.21788,0 -58.69174,-22.18002 -20.47386,-22.18001 -20.47386,-63.69645 0,-41.51644 20.47386,-63.35523 20.58761,-21.95253 58.91922,-21.95253 38.33162,0 58.57799,22.06628 20.36012,22.06627 20.36012,63.46896 z m -121.3645,0 q 0,27.8672 10.57817,41.97142 10.57816,14.10421 31.62074,14.10421 42.1989,0 42.1989,-56.07563 0,-56.18937 -41.97142,-56.18937 -21.04258,0 -31.73448,14.21796 -10.69191,14.10421 -10.69191,41.97141 z"
           inkscape:connector-curvature="0" />
        <path
           id="path1023"
           style="font-style:normal;font-variant:normal;font-weight:normal;font-stretch:normal;font-size:232.94703674px;font-family:'Open Sans';-inkscape-font-specification:'Open Sans';font-variant-ligatures:normal;font-variant-caps:normal;font-variant-numeric:normal;font-feature-settings:normal;text-align:start;writing-mode:lr-tb;text-anchor:start;fill:#ffffff;fill-opacity:1;stroke:#a9a198;stroke-width:1;stroke-miterlimit:4;stroke-dasharray:none;stroke-opacity:1"
           d="M 821.2671,395.93066 H 725.49493 V 229.63742 h 95.77217 v 28.89089 h -60.51163 v 36.51172 h 56.30311 v 28.89089 h -56.30311 v 42.88136 h 60.51163 z"
           inkscape:connector-curvature="0" />
        <path
           id="path1025"
           style="font-style:normal;font-variant:normal;font-weight:normal;font-stretch:normal;font-size:232.94703674px;font-family:'Open Sans';-inkscape-font-specification:'Open Sans';font-variant-ligatures:normal;font-variant-caps:normal;font-variant-numeric:normal;font-feature-settings:normal;text-align:start;writing-mode:lr-tb;text-anchor:start;fill:#ffffff;fill-opacity:1;stroke:#a9a198;stroke-width:1;stroke-miterlimit:4;stroke-dasharray:none;stroke-opacity:1"
           d="m 954.23341,349.75073 q 0,22.52125 -16.26534,35.48803 -16.1516,12.96678 -45.04249,12.96678 -26.61602,0 -47.08988,-10.00945 v -32.75817 q 16.83406,7.50708 28.43591,10.57816 11.7156,3.07108 21.38381,3.07108 11.60186,0 17.74402,-4.43601 6.2559,-4.436 6.2559,-13.19426 0,-4.89098 -2.72985,-8.64452 -2.72985,-3.86728 -8.0758,-7.39334 -5.23221,-3.52605 -21.49755,-11.26062 -15.24166,-7.16585 -22.86248,-13.76299 -7.62083,-6.59713 -12.17057,-15.35539 -4.54975,-8.75826 -4.54975,-20.47386 0,-22.06627 14.90042,-34.69182 15.01416,-12.62555 41.4027,-12.62555 12.96677,0 24.68237,3.07108 11.82934,3.07108 24.68238,8.64452 l -11.37437,27.41222 q -13.30801,-5.45969 -22.06627,-7.62082 -8.64452,-2.16113 -17.06155,-2.16113 -10.00944,0 -15.3554,4.66349 -5.34595,4.66349 -5.34595,12.17057 0,4.66349 2.16113,8.18955 2.16113,3.41231 6.82462,6.71087 4.77723,3.18482 22.4075,11.60186 23.31746,11.14688 31.96198,22.4075 8.64451,11.14688 8.64451,27.41222 z"
           inkscape:connector-curvature="0" />
      </g>
      <g
         id="text991"
         style="font-style:normal;font-variant:normal;font-weight:normal;font-stretch:normal;font-size:130.41542053px;line-height:1.25;font-family:Arial;-inkscape-font-specification:'Arial, Normal';font-variant-ligatures:normal;font-variant-caps:normal;font-variant-numeric:normal;font-feature-settings:normal;text-align:start;letter-spacing:0px;word-spacing:0px;writing-mode:lr-tb;text-anchor:start;fill:#ffffff;fill-opacity:1;stroke:#a9a198;stroke-width:1;stroke-miterlimit:4;stroke-dasharray:none;stroke-opacity:1"
         transform="matrix(0.95286476,-0.18295076,0.19433445,1.0121545,0,0)"
         aria-label="WORLD">
        <path
           id="path1028"
           style="font-style:normal;font-variant:normal;font-weight:normal;font-stretch:normal;font-size:130.41542053px;font-family:'Open Sans';-inkscape-font-specification:'Open Sans';font-variant-ligatures:normal;font-variant-caps:normal;font-variant-numeric:normal;font-feature-settings:normal;text-align:start;writing-mode:lr-tb;text-anchor:start;fill:#ffffff;fill-opacity:1;stroke:#a9a198;stroke-width:1;stroke-miterlimit:4;stroke-dasharray:none;stroke-opacity:1"
           d="m 192.40692,242.79315 h -22.47883 l -12.60852,-48.90578 q -0.70048,-2.61086 -2.41982,-10.76182 -1.65566,-8.21464 -1.91038,-11.01654 -0.38208,3.43869 -1.91038,11.08022 -1.52831,7.57785 -2.35614,10.8255 l -12.54484,48.77842 H 113.76285 L 90.010437,149.69386 h 19.422223 l 11.90804,50.81617 q 3.12029,14.07315 4.52124,24.38921 0.38208,-3.62973 1.71935,-11.20758 1.40094,-7.64152 2.61085,-11.84437 l 13.56371,-52.15343 h 18.65807 l 13.56371,52.15343 q 0.89151,3.50237 2.22878,10.69814 1.33727,7.19578 2.03774,12.35381 0.6368,-4.96699 2.03774,-12.35381 1.40095,-7.45049 2.54718,-12.0354 l 11.84437,-50.81617 h 19.42222 z"
           inkscape:connector-curvature="0" />
        <path
           id="path1030"
           style="font-style:normal;font-variant:normal;font-weight:normal;font-stretch:normal;font-size:130.41542053px;font-family:'Open Sans';-inkscape-font-specification:'Open Sans';font-variant-ligatures:normal;font-variant-caps:normal;font-variant-numeric:normal;font-feature-settings:normal;text-align:start;writing-mode:lr-tb;text-anchor:start;fill:#ffffff;fill-opacity:1;stroke:#a9a198;stroke-width:1;stroke-miterlimit:4;stroke-dasharray:none;stroke-opacity:1"
           d="m 312.31524,196.11615 q 0,23.11562 -11.4623,35.53311 -11.46229,12.41748 -32.85857,12.41748 -21.39628,0 -32.85857,-12.41748 -11.46229,-12.41749 -11.46229,-35.66047 0,-23.24298 11.46229,-35.46943 11.52597,-12.29012 32.98593,-12.29012 21.45996,0 32.79489,12.3538 11.39862,12.35381 11.39862,35.53311 z m -67.94593,0 q 0,15.60145 5.92219,23.4977 5.92218,7.89624 17.70287,7.89624 23.62506,0 23.62506,-31.39394 0,-31.45763 -23.4977,-31.45763 -11.78069,0 -17.76655,7.95993 -5.98587,7.89624 -5.98587,23.4977 z"
           inkscape:connector-curvature="0" />
        <path
           id="path1032"
           style="font-style:normal;font-variant:normal;font-weight:normal;font-stretch:normal;font-size:130.41542053px;font-family:'Open Sans';-inkscape-font-specification:'Open Sans';font-variant-ligatures:normal;font-variant-caps:normal;font-variant-numeric:normal;font-feature-settings:normal;text-align:start;writing-mode:lr-tb;text-anchor:start;fill:#ffffff;fill-opacity:1;stroke:#a9a198;stroke-width:1;stroke-miterlimit:4;stroke-dasharray:none;stroke-opacity:1"
           d="m 351.47807,191.0218 h 6.36794 q 9.36088,0 13.81843,-3.12029 4.45756,-3.1203 4.45756,-9.80663 0,-6.62266 -4.58491,-9.42456 -4.52124,-2.80189 -14.07315,-2.80189 h -5.98587 z m 0,16.04721 v 35.72414 h -19.74061 v -93.09929 h 27.12742 q 18.97647,0 28.08262,6.94106 9.10616,6.87737 9.10616,20.95052 0,8.21464 -4.52124,14.64626 -4.52124,6.36795 -12.79956,9.99767 21.0142,31.39395 27.38214,40.56378 h -21.90571 l -22.22412,-35.72414 z"
           inkscape:connector-curvature="0" />
        <path
           id="path1034"
           style="font-style:normal;font-variant:normal;font-weight:normal;font-stretch:normal;font-size:130.41542053px;font-family:'Open Sans';-inkscape-font-specification:'Open Sans';font-variant-ligatures:normal;font-variant-caps:normal;font-variant-numeric:normal;font-feature-settings:normal;text-align:start;writing-mode:lr-tb;text-anchor:start;fill:#ffffff;fill-opacity:1;stroke:#a9a198;stroke-width:1;stroke-miterlimit:4;stroke-dasharray:none;stroke-opacity:1"
           d="m 417.832,242.79315 v -93.09929 h 19.74062 v 76.79736 h 37.76188 v 16.30193 z"
           inkscape:connector-curvature="0" />
        <path
           id="path1036"
           style="font-style:normal;font-variant:normal;font-weight:normal;font-stretch:normal;font-size:130.41542053px;font-family:'Open Sans';-inkscape-font-specification:'Open Sans';font-variant-ligatures:normal;font-variant-caps:normal;font-variant-numeric:normal;font-feature-settings:normal;text-align:start;writing-mode:lr-tb;text-anchor:start;fill:#ffffff;fill-opacity:1;stroke:#a9a198;stroke-width:1;stroke-miterlimit:4;stroke-dasharray:none;stroke-opacity:1"
           d="m 568.68852,195.352 q 0,22.98826 -13.11796,35.21471 -13.05427,12.22644 -37.76188,12.22644 H 491.4454 v -93.09929 h 29.22885 q 22.79723,0 35.40575,12.03541 12.60852,12.03541 12.60852,33.62273 z m -20.50477,0.50943 q 0,-29.993 -26.49063,-29.993 h -10.5071 v 60.62279 h 8.46936 q 28.52837,0 28.52837,-30.62979 z"
           inkscape:connector-curvature="0" />
      </g>
    </g>
  </g>
  <text
     transform="scale(0.92389387,1.0823754)"
     id="text836"
     y="-27.789774"
     x="11.085333"
     style="font-style:normal;font-variant:normal;font-weight:normal;font-stretch:normal;font-size:248.54129028px;line-height:1.25;font-family:Arial;-inkscape-font-specification:'Arial, Normal';font-variant-ligatures:normal;font-variant-caps:normal;font-variant-numeric:normal;font-feature-settings:normal;text-align:start;letter-spacing:0px;word-spacing:0px;writing-mode:lr-tb;text-anchor:start;fill:#000000;fill-opacity:1;stroke:none;stroke-width:6.21337557"
     xml:space="preserve"><tspan
       style="font-style:normal;font-variant:normal;font-weight:normal;font-stretch:normal;font-size:248.54129028px;font-family:'Open Sans';-inkscape-font-specification:'Open Sans';font-variant-ligatures:normal;font-variant-caps:normal;font-variant-numeric:normal;font-feature-settings:normal;text-align:start;writing-mode:lr-tb;text-anchor:start;stroke-width:6.21337557"
       y="196.0849"
       x="11.085333"
       id="tspan834"
       sodipodi:role="line" /></text>
  <rect
     style="fill:#ffffff;fill-opacity:1;stroke:#a9a198;stroke-width:1;stroke-linecap:round;stroke-linejoin:round;stroke-miterlimit:4;stroke-dasharray:none;stroke-opacity:1"
     id="rect993"
     width="45.136009"
     height="469.60657"
     x="-137.3287"
     y="14.472755" />
  <text
     xml:space="preserve"
     style="font-style:normal;font-weight:normal;font-size:236.37701416px;line-height:1.25;font-family:sans-serif;letter-spacing:0px;word-spacing:0px;fill:#000000;fill-opacity:1;stroke:none;stroke-width:5.90942526"
     x="45.551853"
     y="-37.010532"
     id="text1147"
     transform="scale(0.83026055,1.2044412)"><tspan
       sodipodi:role="line"
       id="tspan1145"
       x="45.551853"
       y="-37.010532"
       style="font-style:normal;font-variant:normal;font-weight:normal;font-stretch:normal;font-family:'Open Sans';-inkscape-font-specification:'Open Sans';stroke-width:5.90942526">DESLIGAR</tspan></text>
</svg>
